# xmcd CD database file
#
# Track frame offsets:
#	150
#	17662
#	39728
#	54675
#	68766
#	89260
#	107952
#	126196
#	142334
#
# Disc length: 2293 seconds
#
# Revision: 0
# Processed by: cddbd v1.5.2PL0 Copyright (c) Steve Scherf et al.
# Submitted via: CDex 1.51
#
DISCID=8408f309
DTITLE=Bob Degen Trio - Hidden Track
DYEAR=1981
DGENRE=Jazz
TTITLE0=01 - Hidden Track
TTITLE1=02 - Joy in a scene from sadness
TTITLE2=03 - Waltz Street
TTITLE3=04 - What are clouds but an excuse for the sky
TTITLE4=05 - Change Up
TTITLE5=06 - Khan
TTITLE6=07 - Liazinth
TTITLE7=08 - A.G.
TTITLE8=09 - The Streaker
EXTD=YEAR: 1981
EXTT0=
EXTT1=
EXTT2=
EXTT3=
EXTT4=
EXTT5=
EXTT6=
EXTT7=
EXTT8=
PLAYORDER=
